<?xml version="1.0" encoding="UTF-8"?>
<svg id="Calque_2" xmlns="http://www.w3.org/2000/svg" viewBox="0 0 324.07 115.43">
  <defs>
    <style>
      .cls-1 {
        fill: #ebefee;
      }
    </style>
  </defs>
  <g id="Calque_1-2" data-name="Calque_1">
    <g>
      <g>
        <path class="cls-1" d="M266.76,28.76c.4,4.72,1.6,10.14,4.78,13.01,3.87,3.49,12.52,3.33,12.52,3.33,0,0,3.03.07,7.61-.83,4.59-.89,7.41-.89,9.25.62l.02,16.78s-8.62-19.99-26.27-11.54c-1.21.58-4.18,2.67-5.56,4.49-1.01,1.34-1.79,2.88-2.35,4.52-.57-1.64-1.35-3.18-2.36-4.52-1.38-1.82-4.35-3.91-5.56-4.49-17.65-8.45-26.27,11.54-26.27,11.54l.02-16.78c1.84-1.51,4.66-1.51,9.25-.62,4.58.9,7.61.83,7.61.83,0,0,8.65.16,12.52-3.33,3.18-2.87,4.38-8.29,4.79-13.01Z"/>
        <path class="cls-1" d="M266.75,0c-31.65,0-57.31,25.66-57.31,57.32s25.66,57.32,57.31,57.32,57.32-25.67,57.32-57.32S298.41,0,266.75,0ZM302.22,84.61c-.76,1.56-2.33,4.13-5.05,6.11-2.48,1.81-6.3,3.93-10.66,3.93-9.01,0-13.78-6.24-13.89-6.37-.16-.19-3.87-4.05-5.86-10.63-2,6.58-5.71,10.44-5.87,10.63-.11.13-4.88,6.37-13.89,6.37-4.36,0-8.18-2.12-10.66-3.93-2.72-1.98-4.29-4.55-5.05-6.11-1.48-3.16-2.87-8.04-.87-13.03,0,0,2.03-5.12,6.55-4.37,4.52.74,5.75,6.46,5.66,8.6,0,0,.06.43-.84,1.51-.9,1.08-2.48,3.36-1.4,8.57,1.09,5.21,4.97,6.35,4.97,6.35,0,0,4.02,1.3,6.77-2.92,2.75-4.21,3.37-10.5,3.32-13.55-.06-3.06-.52-12.26-8.69-15.34-8.17-3.09-15.49,3.68-15.49,3.68v-24.16s-.04-9.36,3.23-11.92c3.06-2.41,8.55-1.11,8.55-1.11,0,0,22.15,5.29,23.63-6.06-.09,1.44-.22,4.49.08,7.9.29-3.41.16-6.46.07-7.9,1.48,11.35,23.63,6.06,23.63,6.06,0,0,5.49-1.3,8.55,1.11,3.27,2.56,3.24,11.92,3.24,11.92v24.16s-7.33-6.77-15.5-3.68c-8.17,3.08-8.63,12.28-8.69,15.34-.05,3.05.57,9.34,3.32,13.55,2.75,4.22,6.77,2.92,6.77,2.92,0,0,3.88-1.14,4.97-6.35,1.08-5.21-.5-7.49-1.4-8.57-.9-1.08-.84-1.51-.84-1.51-.09-2.14,1.14-7.86,5.66-8.6,4.52-.75,6.55,4.37,6.55,4.37,2,4.99.61,9.87-.87,13.03Z"/>
      </g>
      <g>
        <g>
          <path class="cls-1" d="M19.68,34.24l-1-5.85-6.45,1.06,1.4,8.45c.22,1.29.39,2.54.53,3.75.14,1.22.2,2.39.2,3.49.04,3.68-.84,6.49-2.66,8.41-1.82,1.93-4.85,2.89-9.11,2.89H0v8.71h2.66c3.11,0,5.79-.5,8.08-1.49,2.28-1,4.17-2.4,5.65-4.19,1.48-1.79,2.58-3.92,3.29-6.38s1.07-5.18,1.07-8.14c0-1.37-.09-2.97-.27-4.79-.17-1.82-.44-3.79-.8-5.92Z"/>
          <path class="cls-1" d="M13.89,22.27h1.13c1.06,0,1.94-.32,2.62-.96.69-.64,1.03-1.67,1.03-3.09s-.35-2.52-1.03-3.16-1.56-.96-2.62-.96h-1.13c-1.07,0-1.94.32-2.62.96-.69.64-1.03,1.69-1.03,3.16s.34,2.45,1.03,3.09c.68.64,1.56.96,2.62.96Z"/>
          <rect class="cls-1" x="27.45" y="0" width="7.11" height="49.2"/>
          <path class="cls-1" d="M170.62,54.98h-1.13c-1.07,0-1.94.32-2.63.96-.69.64-1.03,1.7-1.03,3.16s.34,2.45,1.03,3.09c.69.64,1.56.96,2.63.96h1.13c1.06,0,1.94-.32,2.62-.96s1.03-1.67,1.03-3.09-.34-2.52-1.03-3.16-1.56-.96-2.62-.96Z"/>
          <path class="cls-1" d="M175.54,27.93l-.93-5.98-6.51,1.07,1.06,5.98c.31,1.82.52,3.27.63,4.36.11,1.09.17,1.99.17,2.69,0,1.68-.59,2.85-1.76,3.49s-3.31.96-6.42.96H60.96s-5.65,0-5.65,0c-.13-1.95-.39-4.03-.8-6.25l-1-5.85-6.45,1.06,1.4,8.45c.22,1.29.39,2.54.53,3.75.14,1.22.2,2.39.2,3.49.04,3.68-.84,6.49-2.66,8.41-1.82,1.93-4.85,2.89-9.11,2.89h-2.59v8.71h2.66c2.71,0,5.1-.39,7.18-1.16,2.08-.77,3.86-1.86,5.32-3.26,1.47-1.4,2.64-3.07,3.53-5.02.88-1.95,1.48-4.12,1.79-6.51h4.39s102.08,0,102.08,0c5.05,0,8.73-1.07,11.04-3.19,2.3-2.13,3.46-5.45,3.46-9.97,0-1.02-.06-2.25-.2-3.69-.13-1.44-.31-2.92-.53-4.42Z"/>
          <path class="cls-1" d="M189.9,61.3c-3.11,0-4.65-.8-4.65-2.39,0-.53.24-.98.73-1.36s1.11-.56,1.86-.56c1.29,0,2.43.53,3.46,1.6l2.99-4.02c-.75-.88-1.72-1.58-2.89-2.1-1.17-.53-2.36-.79-3.55-.79-2,0-3.65.59-4.95,1.78-1.31,1.19-1.96,2.69-1.96,4.49,0,1.37.42,2.53,1.27,3.5l-.07.27h-2.66v4.92h15.15v-5.32h-4.72Z"/>
          <rect class="cls-1" x="182.85" y="0" width="7.11" height="49.2"/>
        </g>
        <g>
          <path class="cls-1" d="M6.99,84.85v5.71h9.07v4.88H.09v-24.93h15.43v4.88H6.99v4.59h7.08v4.88h-7.08Z"/>
          <path class="cls-1" d="M19.19,95.44v-24.93h7.48l6.32,14.92,6.43-14.92h5.96v24.93h-5.75v-13.44l-5.75,13.44h-3.54l-5.78-13.59v13.59h-5.38Z"/>
          <path class="cls-1" d="M56.28,84.85v5.71h9.07v4.88h-15.97v-24.93h15.43v4.88h-8.53v4.59h7.08v4.88h-7.08Z"/>
          <path class="cls-1" d="M84.98,95.76c-3.94,0-5.02-1.81-5.02-6.68,0-2.49-.54-3.25-2.64-3.25h-1.95v9.61h-6.9v-24.93h10.08c5.31,0,9,1.99,9,6.5,0,3.87-2.49,5.93-6.18,6.58h.04c3.47,0,5.64,1.48,5.64,5.13v1.77c0,2.49.33,3.25,1.37,3.5v.98c-.65.47-2.28.79-3.43.79ZM75.37,75.38v6.14h1.95c2.31,0,3.58-1.01,3.58-3.14s-1.34-3-3.43-3h-2.1Z"/>
          <path class="cls-1" d="M101.52,70.14c6.72,0,9.03,5.06,8.49,8.92h-3.4c-.29-1.52-1.63-3-4.26-3-3.11,0-5.35,2.49-5.35,7.44,0,4.23,1.45,7.26,4.99,7.26,2.31,0,3.76-1.12,3.76-3.14v-.87h-2.67v-4.34h8.13v4.23c0,6.58-4.34,9.32-9.83,9.32-7.73,0-11.78-4.84-11.78-12.9,0-8.49,5.49-12.94,11.92-12.94Z"/>
          <path class="cls-1" d="M120.99,84.85v5.71h9.07v4.88h-15.97v-24.93h15.43v4.88h-8.53v4.59h7.08v4.88h-7.08Z"/>
          <path class="cls-1" d="M153.67,95.62h-5.42l-9.72-14.34v14.16h-5.35v-24.93h6.79l8.31,12.47v-12.47h5.38v25.11Z"/>
          <path class="cls-1" d="M167.99,70.14c6.65,0,8.56,4.84,8.13,8.92h-3.4c-.25-1.48-1.34-3-3.76-3-3.22,0-5.13,2.57-5.13,7.12,0,5.06,2.2,7.26,5.13,7.26,2.49,0,4.3-1.19,4.59-3.61h3.07c0,4.37-2.06,9.14-8.82,9.14s-11.38-4.16-11.38-12.79c0-8.17,5.02-13.04,11.56-13.04Z"/>
          <path class="cls-1" d="M186.38,84.85v5.71h9.07v4.88h-15.97v-24.93h15.43v4.88h-8.53v4.59h7.08v4.88h-7.08Z"/>
        </g>
        <g>
          <path class="cls-1" d="M2.29,101.29v12.32h6.3v1.56H.21v-13.88h2.08Z"/>
          <path class="cls-1" d="M13.89,105.33c2.59,0,3.48,1.66,3.48,3.25,0,.48-.08,1.35-.12,1.62h-5.66v.32c0,2.22.95,3.54,2.83,3.54,1.62,0,2.42-.89,2.57-2.18h.71c0,2.18-1.37,3.56-3.72,3.56-2.71,0-4.36-1.62-4.36-4.75s1.62-5.35,4.28-5.35ZM11.67,109.17h4.08c.02-.06.04-.28.04-.55,0-.85-.32-1.76-1.78-1.76-1.25,0-2.08.87-2.34,2.3Z"/>
          <path class="cls-1" d="M25.02,111.11c.18,2.02,1.72,2.79,3.41,2.79,1.6,0,2.87-.57,2.87-2.24s-1.27-2.1-3.33-2.71c-2.16-.63-3.6-1.66-3.6-3.96,0-2.42,1.86-3.86,4.49-3.86s4.44,1.43,4.26,3.88h-1.09c-.1-1.54-1.35-2.36-2.91-2.36s-2.61.71-2.61,2.18c0,1.37,1.27,1.92,3.21,2.46,2.36.67,3.8,1.8,3.8,4.14,0,2.61-2.1,4-4.77,4-2.97,0-4.85-1.46-4.85-4.32h1.11Z"/>
          <path class="cls-1" d="M38.56,110c.65,0,1.48.16,1.96.38v-1.33c0-1.54-.71-2.28-2.06-2.28s-2.06.89-2.2,1.92h-.77c0-1.8.99-3.35,3.47-3.35,2.32,0,3.41,1.29,3.41,3.35v3.84c0,1.66.38,1.98.85,1.98.12,0,.24-.04.36-.12l.18.34c-.18.34-.71.67-1.33.67-1.07,0-1.76-.36-1.9-1.7-.5.97-1.41,1.74-2.91,1.74-1.72,0-2.61-1.09-2.61-2.53,0-1.56.97-2.91,3.54-2.91ZM38.4,114.16c1.51,0,2.12-1.52,2.12-2.91v-.1c-.36-.1-.93-.22-1.47-.22-1.43,0-2.08.71-2.08,1.82,0,.91.53,1.42,1.43,1.42Z"/>
          <path class="cls-1" d="M47.33,100.89v14.34h-1.96v-14.24l1.96-.1Z"/>
          <path class="cls-1" d="M53.89,105.33c2.46,0,4.38,1.76,4.38,5.11,0,3.15-1.66,4.99-4.38,4.99-2.57,0-4.42-1.72-4.42-5.03,0-3.13,1.82-5.07,4.42-5.07ZM53.87,106.86c-1.5,0-2.44,1.31-2.44,3.5,0,2.42.95,3.68,2.46,3.68,1.43,0,2.42-1.19,2.42-3.68,0-2.1-.87-3.5-2.45-3.5Z"/>
          <path class="cls-1" d="M66.54,115.23v-5.15c0-2.16-.46-3.11-1.9-3.11-1.56,0-2.3,1.6-2.3,4.26v4h-1.96v-9.6l1.7-.1.2,2.91v.1c.28-1.8,1.11-3.21,3.19-3.21,2.36,0,3.03,1.52,3.03,3.84v6.06h-1.96Z"/>
          <path class="cls-1" d="M79.09,105.33c1.39,0,2.51.87,3.05,2.5v-6.85l1.96-.1v14.34h-1.56l-.2-2.77c-.36,1.92-1.33,2.97-3.25,2.97s-3.82-1.52-3.82-5.01c0-3.13,1.6-5.09,3.82-5.09ZM79.71,106.89c-1.5,0-2.44,1.39-2.44,3.5,0,2.57,1.19,3.66,2.46,3.66,1.43,0,2.4-1.19,2.4-3.72,0-2.16-1.17-3.43-2.42-3.43Z"/>
          <path class="cls-1" d="M90.52,105.33c2.59,0,3.47,1.66,3.47,3.25,0,.48-.08,1.35-.12,1.62h-5.66v.32c0,2.22.95,3.54,2.83,3.54,1.62,0,2.42-.89,2.57-2.18h.71c0,2.18-1.37,3.56-3.72,3.56-2.71,0-4.36-1.62-4.36-4.75s1.62-5.35,4.28-5.35ZM88.3,109.17h4.08c.02-.06.04-.28.04-.55,0-.85-.32-1.76-1.78-1.76-1.25,0-2.08.87-2.34,2.3Z"/>
          <path class="cls-1" d="M106.76,101.13c3.5,0,4.57,2.57,4.46,3.78h-1.07c-.1-.49-.91-1.98-3.11-1.98-2.42,0-4.24,1.92-4.24,5.46s1.84,5.35,4.14,5.35c2.42,0,3.43-1.62,3.54-2.34h.99c0,1.35-1.11,4.04-4.85,4.04-3.41,0-6.04-2.22-6.04-7.05s2.77-7.25,6.18-7.25Z"/>
          <path class="cls-1" d="M116.45,110c.65,0,1.48.16,1.96.38v-1.33c0-1.54-.71-2.28-2.06-2.28s-2.06.89-2.2,1.92h-.77c0-1.8.99-3.35,3.47-3.35,2.32,0,3.41,1.29,3.41,3.35v3.84c0,1.66.38,1.98.85,1.98.12,0,.24-.04.36-.12l.18.34c-.18.34-.71.67-1.33.67-1.07,0-1.76-.36-1.9-1.7-.5.97-1.41,1.74-2.91,1.74-1.72,0-2.61-1.09-2.61-2.53,0-1.56.97-2.91,3.54-2.91ZM116.29,114.16c1.52,0,2.12-1.52,2.12-2.91v-.1c-.36-.1-.93-.22-1.47-.22-1.43,0-2.08.71-2.08,1.82,0,.91.53,1.42,1.43,1.42Z"/>
          <path class="cls-1" d="M123.42,112.12c.24,1.41,1.09,2.22,2.55,2.22,1.07,0,2.02-.34,2.02-1.43,0-.91-.52-1.31-2.06-1.7-1.96-.5-3.03-1.27-3.03-2.97s1.43-2.91,3.54-2.91,3.35,1.07,3.15,2.87h-.89c-.06-.89-.75-1.7-2.06-1.7-1.07,0-1.84.4-1.84,1.39s.67,1.19,2.32,1.64c2.06.55,2.83,1.47,2.83,2.95,0,1.82-1.47,2.95-3.68,2.95-2.49,0-3.7-1.23-3.7-3.31h.85Z"/>
          <path class="cls-1" d="M134.99,110c.65,0,1.48.16,1.96.38v-1.33c0-1.54-.71-2.28-2.06-2.28s-2.06.89-2.2,1.92h-.77c0-1.8.99-3.35,3.47-3.35,2.32,0,3.41,1.29,3.41,3.35v3.84c0,1.66.38,1.98.85,1.98.12,0,.24-.04.36-.12l.18.34c-.18.34-.71.67-1.33.67-1.07,0-1.76-.36-1.9-1.7-.5.97-1.41,1.74-2.91,1.74-1.72,0-2.61-1.09-2.61-2.53,0-1.56.97-2.91,3.54-2.91ZM134.83,114.16c1.52,0,2.12-1.52,2.12-2.91v-.1c-.36-.1-.93-.22-1.47-.22-1.43,0-2.08.71-2.08,1.82,0,.91.53,1.42,1.43,1.42Z"/>
          <path class="cls-1" d="M143.74,100.89v6.85c.46-1.41,1.41-2.4,3.05-2.4,1.9,0,3.82,1.52,3.82,4.99,0,3.13-1.6,5.11-3.82,5.11-1.52,0-2.69-.89-3.17-2.85l-.18,2.65h-1.66v-14.24l1.96-.1ZM146.15,106.89c-1.43,0-2.4,1.17-2.4,3.7,0,2.16,1.17,3.45,2.42,3.45,1.5,0,2.45-1.41,2.45-3.51,0-2.57-1.19-3.64-2.46-3.64Z"/>
          <path class="cls-1" d="M154.75,100.89v14.34h-1.96v-14.24l1.96-.1Z"/>
          <path class="cls-1" d="M160.37,110c.65,0,1.48.16,1.96.38v-1.33c0-1.54-.71-2.28-2.06-2.28s-2.06.89-2.2,1.92h-.77c0-1.8.99-3.35,3.47-3.35,2.32,0,3.41,1.29,3.41,3.35v3.84c0,1.66.38,1.98.85,1.98.12,0,.24-.04.36-.12l.18.34c-.18.34-.71.67-1.33.67-1.07,0-1.76-.36-1.9-1.7-.5.97-1.41,1.74-2.91,1.74-1.72,0-2.61-1.09-2.61-2.53,0-1.56.97-2.91,3.54-2.91ZM160.21,114.16c1.51,0,2.12-1.52,2.12-2.91v-.1c-.36-.1-.93-.22-1.47-.22-1.43,0-2.08.71-2.08,1.82,0,.91.53,1.42,1.43,1.42Z"/>
          <path class="cls-1" d="M173.29,115.23v-5.15c0-2.16-.46-3.11-1.9-3.11-1.56,0-2.3,1.6-2.3,4.26v4h-1.96v-9.6l1.7-.1.2,2.91v.1c.28-1.8,1.11-3.21,3.19-3.21,2.36,0,3.03,1.52,3.03,3.84v6.06h-1.96Z"/>
          <path class="cls-1" d="M181.55,105.33c2.3,0,3.13,1.27,3.27,2.49.04.32.04.63,0,.91h-.89c-.12-.85-.53-1.9-2.1-1.9-1.68,0-2.54,1.62-2.54,3.7,0,2.34,1.23,3.58,2.71,3.58s2.26-.85,2.44-2.22h.71c0,2.06-1.19,3.56-3.54,3.56-2.14,0-4.32-1.23-4.32-4.81,0-2.99,1.62-5.29,4.26-5.29Z"/>
          <path class="cls-1" d="M190.21,110c.65,0,1.48.16,1.96.38v-1.33c0-1.54-.71-2.28-2.06-2.28s-2.06.89-2.2,1.92h-.77c0-1.8.99-3.35,3.47-3.35,2.32,0,3.41,1.29,3.41,3.35v3.84c0,1.66.38,1.98.85,1.98.12,0,.24-.04.36-.12l.18.34c-.18.34-.71.67-1.33.67-1.07,0-1.76-.36-1.9-1.7-.5.97-1.41,1.74-2.91,1.74-1.72,0-2.61-1.09-2.61-2.53,0-1.56.97-2.91,3.54-2.91ZM190.05,114.16c1.51,0,2.12-1.52,2.12-2.91v-.1c-.36-.1-.93-.22-1.47-.22-1.43,0-2.08.71-2.08,1.82,0,.91.53,1.42,1.43,1.42Z"/>
        </g>
      </g>
    </g>
  </g>
</svg>