<svg width="842" height="596" viewBox="0 0 842 596" fill="none" xmlns="http://www.w3.org/2000/svg">
<g clip-path="url(#clip0_1_43)">
<path d="M0 595.277H841.891V0H0V595.277Z" fill="#480016"/>
<path d="M313.09 -0.558594C309.977 -2.22266 306.949 -4.07422 302.02 -6.91016C302.02 3.41797 301.871 12.25 302.051 21.0859C302.5 43.168 301.906 65.3594 303.992 87.2852C305.934 107.727 315.914 114.805 336.508 113.43C346.965 112.727 357.293 110.32 367.746 109.539C376.719 108.875 385.906 108.473 394.77 109.641C409.117 111.527 415.363 117.25 420.902 131.121C426.109 113.219 440.121 108.531 455.672 108.766C471.156 108.996 486.594 111.801 502.078 113.207C525.773 115.371 537.137 107.375 538.305 83.8984C539.77 54.3047 538.66 24.5859 538.66 -4.24609C527.719 -0.648438 516.82 4.40234 505.383 6.42578C471.602 12.4102 445.281 -9.69141 446.141 -43.8867C446.148 -44.043 446.148 -44.2109 446.16 -44.3672H395.691C395.457 -31.1758 391.871 -18.4531 384.883 -10.0391C369.109 8.95703 338.5 13.0195 313.09 -0.558594Z" fill="#FF2125"/>
<path d="M207.305 286.332C227.961 276.281 236.285 251.797 227.816 230.473C222.301 216.574 206.918 209.937 193.957 215.871C180.137 222.191 176.461 235.922 184.699 250.484C192.262 263.863 186.691 284.699 173.703 291.617C160.535 298.629 145.039 293.367 138.109 277.227C133.371 266.184 129.98 253.703 129.684 241.781C128.812 207.582 155.141 185.484 188.922 191.465C200.359 193.492 211.258 198.535 222.191 202.133C222.191 173.305 223.309 143.582 221.836 113.996C221.773 112.637 221.668 111.336 221.535 110.078C230.633 111.07 239.73 112.375 248.852 113.207C272.543 115.371 283.91 107.375 285.07 83.8984C286.543 54.3047 285.426 24.5859 285.426 -4.24609C274.492 -0.648438 263.59 4.40234 252.156 6.42578C218.375 12.4102 192.051 -9.69141 192.914 -43.8867C192.922 -44.043 192.922 -44.2109 192.934 -44.3672H-7.37109V280.531C-4.34375 283.113 -0.875 285.348 3.01562 287.137C34.293 301.535 65.7148 299.852 96.0273 283.938C102.227 280.691 106.133 280.43 112.43 283.73C143.457 300 175.504 301.793 207.305 286.332Z" fill="#FF2125"/>
<mask id="mask0_1_43" style="mask-type:luminance" maskUnits="userSpaceOnUse" x="555" y="0" width="287" height="297">
<path d="M555 0H841.891V297H555V0Z" fill="white"/>
</mask>
<g mask="url(#mask0_1_43)">
<path d="M849.262 280.402V-44.3672H648.918C648.684 -31.1758 645.098 -18.4531 638.109 -10.0391C622.336 8.96094 591.73 13.0195 566.32 -0.558594C563.203 -2.22266 560.184 -4.07422 555.246 -6.91016C555.246 3.41797 555.102 12.2539 555.277 21.0859C555.727 43.168 555.133 65.3555 557.219 87.2852C559.16 107.727 569.141 114.809 589.738 113.43C600.051 112.73 610.254 110.391 620.566 109.578C620.527 109.914 620.484 110.25 620.453 110.602C618.363 132.535 618.961 154.727 618.512 176.809C618.332 185.637 618.484 194.473 618.484 204.797C623.414 201.961 626.437 200.113 629.551 198.453C654.965 184.871 685.57 188.934 701.344 207.934C716.27 225.902 715.664 263.508 700.074 283.43C693.832 291.414 685.707 295.777 675.453 294.086C665.219 292.391 658.59 285.809 655.625 276.094C652.437 265.656 652.344 255.422 659.895 246.254C661.551 244.246 662.941 241.215 662.852 238.707C662.406 226.148 652.516 215.27 640.918 213.922C628.414 212.477 617.785 219.539 613.473 232.152C605.902 254.324 614.652 277.34 635.934 287.137C667.219 301.535 698.641 299.852 728.953 283.938C735.152 280.688 739.062 280.43 745.355 283.73C776.387 300 808.422 301.793 840.23 286.332C843.57 284.707 846.586 282.707 849.262 280.402Z" fill="#FF2125"/>
</g>
<mask id="mask1_1_43" style="mask-type:luminance" maskUnits="userSpaceOnUse" x="555" y="296" width="287" height="300">
<path d="M555 296H841.891V595.277H555V296Z" fill="white"/>
</mask>
<g mask="url(#mask1_1_43)">
<path d="M849.262 499.816V313.578C846.586 311.273 843.57 309.277 840.23 307.652C808.422 292.18 776.387 293.977 745.355 310.246C739.062 313.547 735.152 313.293 728.953 310.039C698.641 294.121 667.219 292.449 635.934 306.84C614.652 316.637 605.902 339.652 613.473 361.824C617.785 374.438 628.414 381.504 640.918 380.051C652.516 378.707 662.406 367.824 662.852 355.27C662.941 352.762 661.551 349.727 659.895 347.723C652.344 338.555 652.437 328.32 655.625 317.879C658.59 308.164 665.219 301.586 675.453 299.891C685.707 298.195 693.832 302.57 700.074 310.543C715.664 330.469 716.27 368.074 701.344 386.043C685.57 405.047 654.965 409.102 629.551 395.523C626.437 393.859 623.414 392.012 618.484 389.176C618.484 399.5 618.332 408.34 618.512 417.168C618.961 439.25 618.363 461.441 620.453 483.375C620.484 483.723 620.527 484.062 620.566 484.398C610.254 483.59 600.051 481.242 589.738 480.551C569.141 479.168 559.16 486.25 557.219 506.688C555.133 528.617 555.727 550.809 555.277 572.891C555.102 581.723 555.246 590.555 555.246 600.887C560.184 598.051 563.203 596.203 566.32 594.535C591.73 580.961 622.336 585.016 638.109 604.016C645.324 612.707 648.91 625.988 648.93 639.645H849.262V499.816Z" fill="#FF2125"/>
</g>
<mask id="mask2_1_43" style="mask-type:luminance" maskUnits="userSpaceOnUse" x="301" y="462" width="239" height="134">
<path d="M301 462H540V595.277H301V462Z" fill="white"/>
</mask>
<g mask="url(#mask2_1_43)">
<path d="M505.383 587.547C516.816 589.574 527.719 594.625 538.66 598.223C538.66 569.387 539.77 539.672 538.305 510.078C537.137 486.598 525.773 478.605 502.078 480.77C486.594 482.184 471.156 484.98 455.672 485.211C440.125 485.445 426.109 480.754 420.902 462.855C415.359 476.727 409.117 482.449 394.77 484.332C385.906 485.5 376.715 485.102 367.746 484.438C357.293 483.656 346.965 481.25 336.508 480.551C315.914 479.168 305.934 486.25 303.992 506.688C301.906 528.617 302.5 550.809 302.051 572.891C301.871 581.723 302.02 590.559 302.02 600.887C306.949 598.051 309.977 596.203 313.09 594.535C338.5 580.961 369.109 585.016 384.883 604.016C392.098 612.707 395.684 625.988 395.703 639.645H446.211C446.18 639.047 446.156 638.457 446.145 637.863C445.281 603.668 471.602 581.57 505.383 587.547Z" fill="#FF2125"/>
</g>
<mask id="mask3_1_43" style="mask-type:luminance" maskUnits="userSpaceOnUse" x="0" y="296" width="286" height="300">
<path d="M0 296H286V595.277H0V296Z" fill="white"/>
</mask>
<g mask="url(#mask3_1_43)">
<path d="M252.156 587.547C263.59 589.574 274.492 594.625 285.426 598.223C285.426 569.387 286.543 539.672 285.078 510.078C283.91 486.598 272.543 478.605 248.852 480.77C239.73 481.598 230.633 482.906 221.531 483.895C221.668 482.641 221.773 481.34 221.84 479.98C223.309 450.391 222.191 420.668 222.191 391.844C211.262 395.441 200.359 400.484 188.926 402.508C155.141 408.492 128.812 386.398 129.684 352.203C129.98 340.273 133.371 327.793 138.109 316.75C145.039 300.609 160.535 295.348 173.703 302.359C186.691 309.277 192.262 330.113 184.699 343.492C176.461 358.055 180.137 371.785 193.957 378.105C206.918 384.039 222.301 377.402 227.816 363.504C236.285 342.176 227.961 317.695 207.305 307.652C175.504 292.18 143.461 293.977 112.43 310.246C106.137 313.547 102.227 313.293 96.0273 310.035C65.7148 294.121 34.293 292.449 3.01562 306.84C-0.875 308.629 -4.34766 310.863 -7.37109 313.445V639.645H192.984C192.953 639.047 192.93 638.457 192.914 637.863C192.051 603.668 218.375 581.57 252.156 587.547Z" fill="#FF2125"/>
</g>
</g>
<defs>
<clipPath id="clip0_1_43">
<rect width="841.89" height="595.276" fill="white"/>
</clipPath>
</defs>
</svg>
